<?xml version="1.0" encoding="utf-8"?>
<svg version="1.1" xmlns="http://www.w3.org/2000/svg" xmlns:xlink="http://www.w3.org/1999/xlink" viewBox="0 0 1000 1000">
	<path fill="#0D0D0D" d="M853.554,146.446C763.071,55.964,638.071,0,500,0v500L853.554,146.446z"/>
	<path fill="#303030" d="M500,500h500c0-138.071-55.965-263.071-146.446-353.554L500,500z"/>
	<path fill="#4A4A4A" d="M853.48,853.625C944.006,763.138,1000,638.108,1000,500H500L853.48,853.625z"/>
	<path fill="#1E1E1E" d="M500,500v500c138.034,0,263.004-55.935,353.48-146.375L500,500z"/>
	<path fill="#0D0D0D" d="M144.386,851.469C235.027,943.172,360.875,1000,500,1000V496L144.386,851.469z"/>
	<path fill="#303030" d="M500,496H0.025C0.015,497.333,0,498.665,0,500c0,137.017,55.119,261.155,144.386,351.469L500,496z"/>
	<path fill="#4A4A4A" d="M500,496L148.458,144.458C57.678,234.224,1.104,358.501,0.025,496H500z"/>
	<path fill="#1E1E1E" d="M500,496V0C362.946,0,238.778,55.149,148.458,144.458L500,496z"/>
</svg>
